<svg width="1356.965087890625px" height="260.03999023437495px" xmlns="http://www.w3.org/2000/svg" viewBox="-428.4825439453125 -55.01999511718748 1356.965087890625 260.03999023437495" style="background: rgba(68, 68, 68, 0);" preserveAspectRatio="xMidYMid"><defs><filter id="editing-crystal" x="-100%" y="-100%" width="300%" height="300%"><feMorphology operator="dilate" radius="2" in="SourceGraphic" result="border"></feMorphology><feFlood flood-color="rgba(100%,100%,100%,0)" result="black"></feFlood><feMorphology operator="dilate" radius="2" in="SourceGraphic" result="erode"></feMorphology><feGaussianBlur in="erode" stdDeviation="4" result="blur"></feGaussianBlur><feOffset in="blur" dx="2" dy="2" result="offset"></feOffset><feComposite operator="atop" in="offset" in2="black" result="merge"></feComposite><feComposite operator="in" in="merge" in2="SourceGraphic" result="inner-shadow"></feComposite><feGaussianBlur in="SourceGraphic" stdDeviation="2.5" result="shadow1"></feGaussianBlur><feOffset in="shadow1" dx="0" dy="5" result="shadow"></feOffset><feSpecularLighting in="SourceGraphic" result="specular" surfaceScale="1.5" specularConstant="100" specularExponent="10" lighting-color="rgba(100%,100%,100%,0)"><fePointLight x="250" y="-300" z="-400"></fePointLight></feSpecularLighting><feGaussianBlur in="specular" stdDeviation="1" result="specular2"></feGaussianBlur><feComposite operator="in" in="specular2" in2="SourceAlpha" result="specular3"></feComposite><feMerge result="merge"><feMergeNode in="border"></feMergeNode><feMergeNode in="inner-shadow"></feMergeNode><feMergeNode in="specular3"></feMergeNode></feMerge><feComponentTransfer in="merge" result="final"><feFuncA type="linear" slope="0.9" intercept="0"></feFuncA></feComponentTransfer><feMerge><feMergeNode in="shadow"></feMergeNode><feMergeNode in="final"></feMergeNode></feMerge></filter></defs><g filter="url(#editing-crystal)"><g transform="translate(-272.9756226539612, 145.43000030517578)"><path d="M129.86-91.79L124.08-77.97L104.48-5.08L99.69 3.53L95.03 4.09L90.66-8.88L76.99-47.66L69.23-70.08L48.22-5.08L42.44 3.53L37.79 4.09L34.83-8.88L22.14-48.08L13.40-78.40L7.76-91.93L-3.10-94.47L-2.40-100.11L16.92-98.70L35.67-100.11L35.39-94.47L25.52-92.21L28.34-80.09L39.20-36.52L44.70-14.38L44.98-14.38L52.03-38.35L65.42-80.79L60.77-91.65L49.63-94.47L50.34-100.11L69.09-98.70L87.84-100.11L87.56-94.47L77.83-92.21L80.51-80.09L95.03-36.52L100.39-14.81L100.67-14.81L105.75-38.35L117.59-80.79L119.57-92.07L108.43-94.47L109.13-100.11L125.35-98.70L140.30-100.11L140.01-94.47L129.86-91.79ZM147.63-19.32L151.43-7.90L162.01-5.22L176.25-13.40L175.69-32.43L163.42-32.43L152.56-28.06L147.63-19.32ZM187.67-55.84L187.81-25.66L188.80-5.78L198.53-4.37L197.54 0.28L177.94 1.97L176.11-6.35L175.40-6.35L161.44 1.97L146.78 1.97L136.91-5.22L133.95-19.04L140.15-30.03L157.07-37.37L175.69-38.07L175.12-55.70L172.44-64.44L161.02-67.68L147.34-64.44L146.92-49.49L141.42-48.36L137.76-67.68L153.97-72.47L172.16-73.32L183.16-67.96L187.67-55.84ZM226.16-37.08L226.59 0L223.34 14.66L212.49 25.94L199.37 34.26L196.69 28.62L205.16 22.14L211.08 13.25L212.77 0L212.91-21.86L212.91-48.93L211.64-63.59L201.91-63.17L201.21-68.10L220.67-71.91L227.72-70.36L226.73-51.18L226.16-37.08ZM207.41-94.33L210.80-99.83L217.28-102.93L224.05-100.67L227.15-93.06L223.20-86.86L216.58-84.18L210.37-87.98L207.41-94.33ZM254.36-19.32L258.17-7.90L268.75-5.22L282.99-13.40L282.42-32.43L270.16-32.43L259.30-28.06L254.36-19.32ZM294.41-55.84L294.55-25.66L295.54-5.78L305.26-4.37L304.28 0.28L284.68 1.97L282.85-6.35L282.14-6.35L268.18 1.97L253.52 1.97L243.65-5.22L240.69-19.04L246.89-30.03L263.81-37.37L282.42-38.07L281.86-55.70L279.18-64.44L267.76-67.68L254.08-64.44L253.66-49.49L248.16-48.36L244.49-67.68L260.71-72.47L278.90-73.32L289.90-67.96L294.41-55.84ZM334.03-105.05L333.32-85.87L332.90-62.75L348.55-72.33L362.93-73.32L375.91-64.44L378.02-53.16L377.74-23.41L378.87-6.91L388.88-4.23L388.17 0.71L371.54 0L354.33 0.71L354.62-4.23L363.92-7.05L364.91-21.86L364.34-52.59L360.54-61.90L348.55-64.01L332.76-55.98L332.48-37.08L332.76-23.41L333.18-7.05L343.48-4.23L342.77 0.71L326.13 0L308.93 0.71L309.21-4.23L318.52-7.05L319.79-21.86L319.22-83.61L318.24-98.28L308.23-97.85L307.52-102.79L326.98-106.60L334.03-105.05ZM408.62-19.32L412.43-7.90L423-5.22L437.24-13.40L436.68-32.43L424.41-32.43L413.55-28.06L408.62-19.32ZM448.66-55.84L448.80-25.66L449.79-5.78L459.52-4.37L458.53 0.28L438.93 1.97L437.10-6.35L436.40-6.35L422.44 1.97L407.77 1.97L397.90-5.22L394.94-19.04L401.15-30.03L418.06-37.37L436.68-38.07L436.11-55.70L433.43-64.44L422.01-67.68L408.34-64.44L407.91-49.49L402.41-48.36L398.75-67.68L414.96-72.47L433.15-73.32L444.15-67.96L448.66-55.84ZM505.77-3.38L497.87 1.41L488.28 2.82L478.27-0.56L473.76-11.84L474.47-38.07L473.76-61.76L464.03-63.17L463.19-68.10L474.32-71.06L479.40-85.31L486.59-85.31L486.17-69.51L503.23-68.95L502.38-62.75L487.58-61.76L487.01-55.27L487.58-12.55L490.40-4.09L503.65-7.61L505.77-3.38ZM640.56-4.79L658.47-8.88L663.97-16.50L663.69-29.05L657.34-35.81L621.53-55.70L615.04-70.92L616.31-84.18L624.35-95.03L643.95-101.52L665.52-99.83L672.15-100.39L671.02-93.20L671.16-74.73L665.94-73.60L662.28-92.21L645.64-94.47L631.40-89.11L628.16-79.81L631.26-67.82L666.79-48.36L677.22-37.51L677.79-15.23L666.93-1.69L646.20 2.82L620.12-0.28L613.49-1.27L614.62-6.77L615.89-25.24L621.11-26.37L623.36-7.76L640.56-4.79ZM701.19-19.32L705.00-7.90L715.58-5.22L729.82-13.40L729.25-32.43L716.99-32.43L706.13-28.06L701.19-19.32ZM741.24-55.84L741.38-25.66L742.37-5.78L752.09-4.37L751.11 0.28L731.51 1.97L729.68-6.35L728.97-6.35L715.01 1.97L700.35 1.97L690.48-5.22L687.52-19.04L693.72-30.03L710.64-37.37L729.25-38.07L728.69-55.70L726.01-64.44L714.59-67.68L700.91-64.44L700.49-49.49L694.99-48.36L691.32-67.68L707.54-72.47L725.73-73.32L736.73-67.96L741.24-55.84ZM782.69-70.36L782.13-58.94L782.69-58.94L791.43-68.95L801.02-73.18L811.60-70.50L809.20-49.49L804.26-50.48L800.74-65.00L791.57-62.04L781.56-50.34L780.86-37.08L781.28-23.41L781.85-7.05L795.95-4.23L795.24 0.71L774.80 0L757.59 0.71L757.88-4.23L767.18-7.05L767.89-21.86L767.60-48.93L766.90-63.59L756.89-63.17L756.18-68.10L775.64-71.91L782.69-70.36ZM851.08 4.23L830.49-51.32L824.15-63.73L814.70-66.27L815.40-71.21L832.61-70.50L849.81-71.21L849.53-66.27L839.94-63.45L842.19-55.27L849.81-31.73L855.45-11.14L855.87-11.14L859.68-25.52L870.39-55.84L866.45-63.73L857.00-66.27L857.70-71.21L874.91-70.50L892.11-71.21L891.83-66.27L882.24-63.45L884.49-55.27L891.26-31.73L896.90-11.14L897.32-11.14L901.13-25.52L911.00-54.85L913.26-63.87L902.26-66.27L902.96-71.21L916.78-70.50L931.73-71.21L931.45-66.27L922.70-63.45L916.64-50.48L901.55-4.09L897.18 3.24L892.53 4.23L874.48-46.25L860.10-4.09L855.73 3.24L851.08 4.23ZM948.37-19.32L952.17-7.90L962.75-5.22L976.99-13.40L976.43-32.43L964.16-32.43L953.30-28.06L948.37-19.32ZM988.41-55.84L988.55-25.66L989.54-5.78L999.27-4.37L998.28 0.28L978.68 1.97L976.85-6.35L976.14-6.35L962.18 1.97L947.52 1.97L937.65-5.22L934.69-19.04L940.89-30.03L957.81-37.37L976.43-38.07L975.86-55.70L973.18-64.44L961.76-67.68L948.08-64.44L947.66-49.49L942.16-48.36L938.50-67.68L954.71-72.47L972.90-73.32L983.90-67.96L988.41-55.84ZM1045.52-3.38L1037.62 1.41L1028.03 2.82L1018.02-0.56L1013.51-11.84L1014.21-38.07L1013.51-61.76L1003.78-63.17L1002.93-68.10L1014.07-71.06L1019.15-85.31L1026.34-85.31L1025.92-69.51L1042.98-68.95L1042.13-62.75L1027.33-61.76L1026.76-55.27L1027.33-12.55L1030.15-4.09L1043.40-7.61L1045.52-3.38Z" fill="#88dceb" stroke="rgba(53.333333333333336%,87.84313725490198%,92.15686274509804%,0)" stroke-width="1.5"></path></g></g><style>text {
  font-size: 64px;
  font-family: Arial Black;
  dominant-baseline: central;
  text-anchor: middle;
}</style></svg>