<svg width="1915.5212890624998px" height="360.807470703125px" xmlns="http://www.w3.org/2000/svg" viewBox="-707.7606445312499 -105.40373535156249 1915.5212890624998 360.807470703125" style="background: rgba(68, 68, 68, 0);" preserveAspectRatio="xMidYMid"><defs><filter id="editing-crystal" x="-100%" y="-100%" width="300%" height="300%"><feMorphology operator="dilate" radius="2" in="SourceGraphic" result="border"></feMorphology><feFlood flood-color="rgba(100%,100%,100%,0)" result="black"></feFlood><feMorphology operator="dilate" radius="2" in="SourceGraphic" result="erode"></feMorphology><feGaussianBlur in="erode" stdDeviation="4" result="blur"></feGaussianBlur><feOffset in="blur" dx="2" dy="2" result="offset"></feOffset><feComposite operator="atop" in="offset" in2="black" result="merge"></feComposite><feComposite operator="in" in="merge" in2="SourceGraphic" result="inner-shadow"></feComposite><feGaussianBlur in="SourceGraphic" stdDeviation="2.5" result="shadow1"></feGaussianBlur><feOffset in="shadow1" dx="0" dy="5" result="shadow"></feOffset><feSpecularLighting in="SourceGraphic" result="specular" surfaceScale="1.5" specularConstant="100" specularExponent="10" lighting-color="rgba(100%,100%,100%,0)"><fePointLight x="250" y="-300" z="-400"></fePointLight></feSpecularLighting><feGaussianBlur in="specular" stdDeviation="1" result="specular2"></feGaussianBlur><feComposite operator="in" in="specular2" in2="SourceAlpha" result="specular3"></feComposite><feMerge result="merge"><feMergeNode in="border"></feMergeNode><feMergeNode in="inner-shadow"></feMergeNode><feMergeNode in="specular3"></feMergeNode></feMerge><feComponentTransfer in="merge" result="final"><feFuncA type="linear" slope="0.9" intercept="0"></feFuncA></feComponentTransfer><feMerge><feMergeNode in="shadow"></feMergeNode><feMergeNode in="final"></feMergeNode></feMerge></filter></defs><g filter="url(#editing-crystal)"><g transform="translate(-491.5109496116638, 174.89999389648438)"><path d="M184.20-130.20L176-110.60L148.20-7.20L141.40 5L134.80 5.80L128.60-12.60L109.20-67.60L98.20-99.40L68.40-7.20L60.20 5L53.60 5.80L49.40-12.60L31.40-68.20L19-111.20L11-130.40L-4.40-134L-3.40-142L24-140L50.60-142L50.20-134L36.20-130.80L40.20-113.60L55.60-51.80L63.40-20.40L63.80-20.40L73.80-54.40L92.80-114.60L86.20-130L70.40-134L71.40-142L98-140L124.60-142L124.20-134L110.40-130.80L114.20-113.60L134.80-51.80L142.40-21L142.80-21L150-54.40L166.80-114.60L169.60-130.60L153.80-134L154.80-142L177.80-140L199-142L198.60-134L184.20-130.20ZM209.40-27.40L214.80-11.20L229.80-7.40L250-19L249.20-46L231.80-46L216.40-39.80L209.40-27.40ZM266.20-79.20L266.40-36.40L267.80-8.20L281.60-6.20L280.20 0.40L252.40 2.80L249.80-9L248.80-9L229 2.80L208.20 2.80L194.20-7.40L190-27L198.80-42.60L222.80-53L249.20-54L248.40-79L244.60-91.40L228.40-96L209-91.40L208.40-70.20L200.60-68.60L195.40-96L218.40-102.80L244.20-104L259.80-96.40L266.20-79.20ZM320.80-52.60L321.40 0L316.80 20.80L301.40 36.80L282.80 48.60L279 40.60L291 31.40L299.40 18.80L301.80 0L302-31L302-69.40L300.20-90.20L286.40-89.60L285.40-96.60L313-102L323-99.80L321.60-72.60L320.80-52.60ZM294.20-133.80L299-141.60L308.20-146L317.80-142.80L322.20-132L316.60-123.20L307.20-119.40L298.40-124.80L294.20-133.80ZM360.80-27.40L366.20-11.20L381.20-7.40L401.40-19L400.60-46L383.20-46L367.80-39.80L360.80-27.40ZM417.60-79.20L417.80-36.40L419.20-8.20L433-6.20L431.60 0.40L403.80 2.80L401.20-9L400.20-9L380.40 2.80L359.60 2.80L345.60-7.40L341.40-27L350.20-42.60L374.20-53L400.60-54L399.80-79L396-91.40L379.80-96L360.40-91.40L359.80-70.20L352-68.60L346.80-96L369.80-102.80L395.60-104L411.20-96.40L417.60-79.20ZM473.80-149L472.80-121.80L472.20-89L494.40-102.60L514.80-104L533.20-91.40L536.20-75.40L535.80-33.20L537.40-9.80L551.60-6L550.60 1L527 0L502.60 1L503-6L516.20-10L517.60-31L516.80-74.60L511.40-87.80L494.40-90.80L472-79.40L471.60-52.60L472-33.20L472.60-10L487.20-6L486.20 1L462.60 0L438.20 1L438.60-6L451.80-10L453.60-31L452.80-118.60L451.40-139.40L437.20-138.80L436.20-145.80L463.80-151.20L473.80-149ZM579.60-27.40L585-11.20L600-7.40L620.20-19L619.40-46L602-46L586.60-39.80L579.60-27.40ZM636.40-79.20L636.60-36.40L638-8.20L651.80-6.20L650.40 0.40L622.60 2.80L620-9L619-9L599.20 2.80L578.40 2.80L564.40-7.40L560.20-27L569-42.60L593-53L619.40-54L618.60-79L614.80-91.40L598.60-96L579.20-91.40L578.60-70.20L570.80-68.60L565.60-96L588.60-102.80L614.40-104L630-96.40L636.40-79.20ZM717.40-4.80L706.20 2L692.60 4L678.40-0.80L672-16.80L673-54L672-87.60L658.20-89.60L657-96.60L672.80-100.80L680-121L690.20-121L689.60-98.60L713.80-97.80L712.60-89L691.60-87.60L690.80-78.40L691.60-17.80L695.60-5.80L714.40-10.80L717.40-4.80ZM908.60-6.80L934-12.60L941.80-23.40L941.40-41.20L932.40-50.80L881.60-79L872.40-100.60L874.20-119.40L885.60-134.80L913.40-144L944-141.60L953.40-142.40L951.80-132.20L952-106L944.60-104.40L939.40-130.80L915.80-134L895.60-126.40L891-113.20L895.40-96.20L945.80-68.60L960.60-53.20L961.40-21.60L946-2.40L916.60 4L879.60-0.40L870.20-1.80L871.80-9.60L873.60-35.80L881-37.40L884.20-11L908.60-6.80ZM994.60-27.40L1000-11.20L1015-7.40L1035.20-19L1034.40-46L1017-46L1001.60-39.80L994.60-27.40ZM1051.40-79.20L1051.60-36.40L1053-8.20L1066.80-6.20L1065.40 0.40L1037.60 2.80L1035-9L1034-9L1014.20 2.80L993.40 2.80L979.40-7.40L975.20-27L984-42.60L1008-53L1034.40-54L1033.60-79L1029.80-91.40L1013.60-96L994.20-91.40L993.60-70.20L985.80-68.60L980.60-96L1003.60-102.80L1029.40-104L1045-96.40L1051.40-79.20ZM1110.20-99.80L1109.40-83.60L1110.20-83.60L1122.60-97.80L1136.20-103.80L1151.20-100L1147.80-70.20L1140.80-71.60L1135.80-92.20L1122.80-88L1108.60-71.40L1107.60-52.60L1108.20-33.20L1109-10L1129-6L1128 1L1099 0L1074.60 1L1075-6L1088.20-10L1089.20-31L1088.80-69.40L1087.80-90.20L1073.60-89.60L1072.60-96.60L1100.20-102L1110.20-99.80ZM1207.20 6L1178-72.80L1169-90.40L1155.60-94L1156.60-101L1181-100L1205.40-101L1205-94L1191.40-90L1194.60-78.40L1205.40-45L1213.40-15.80L1214-15.80L1219.40-36.20L1234.60-79.20L1229-90.40L1215.60-94L1216.60-101L1241-100L1265.40-101L1265-94L1251.40-90L1254.60-78.40L1264.20-45L1272.20-15.80L1272.80-15.80L1278.20-36.20L1292.20-77.80L1295.40-90.60L1279.80-94L1280.80-101L1300.40-100L1321.60-101L1321.20-94L1308.80-90L1300.20-71.60L1278.80-5.80L1272.60 4.60L1266 6L1240.40-65.60L1220-5.80L1213.80 4.60L1207.20 6ZM1345.20-27.40L1350.60-11.20L1365.60-7.40L1385.80-19L1385-46L1367.60-46L1352.20-39.80L1345.20-27.40ZM1402-79.20L1402.20-36.40L1403.60-8.20L1417.40-6.20L1416 0.40L1388.20 2.80L1385.60-9L1384.60-9L1364.80 2.80L1344 2.80L1330-7.40L1325.80-27L1334.60-42.60L1358.60-53L1385-54L1384.20-79L1380.40-91.40L1364.20-96L1344.80-91.40L1344.20-70.20L1336.40-68.60L1331.20-96L1354.20-102.80L1380-104L1395.60-96.40L1402-79.20ZM1483.00-4.80L1471.80 2L1458.20 4L1444.00-0.80L1437.60-16.80L1438.60-54L1437.60-87.60L1423.80-89.60L1422.60-96.60L1438.40-100.80L1445.60-121L1455.80-121L1455.20-98.60L1479.40-97.80L1478.20-89L1457.20-87.60L1456.40-78.40L1457.20-17.80L1461.20-5.80L1480.00-10.80L1483.00-4.80Z" fill="#88dceb" stroke="rgba(53.333333333333336%,87.84313725490198%,92.15686274509804%,0)" stroke-width="1.5"></path></g></g><style>text {
  font-size: 64px;
  font-family: Arial Black;
  dominant-baseline: central;
  text-anchor: middle;
}</style></svg>