<svg width="626.9212768554687px" height="129.22490234375px" xmlns="http://www.w3.org/2000/svg" viewBox="-63.46063842773435 10.387548828125006 626.9212768554687 129.22490234375" style="background: rgba(68, 68, 68, 0);" preserveAspectRatio="xMidYMid"><defs><filter id="editing-crystal" x="-100%" y="-100%" width="300%" height="300%"><feMorphology operator="dilate" radius="2" in="SourceGraphic" result="border"></feMorphology><feFlood flood-color="rgba(100%,100%,100%,0)" result="black"></feFlood><feMorphology operator="dilate" radius="2" in="SourceGraphic" result="erode"></feMorphology><feGaussianBlur in="erode" stdDeviation="4" result="blur"></feGaussianBlur><feOffset in="blur" dx="2" dy="2" result="offset"></feOffset><feComposite operator="atop" in="offset" in2="black" result="merge"></feComposite><feComposite operator="in" in="merge" in2="SourceGraphic" result="inner-shadow"></feComposite><feGaussianBlur in="SourceGraphic" stdDeviation="2.5" result="shadow1"></feGaussianBlur><feOffset in="shadow1" dx="0" dy="5" result="shadow"></feOffset><feSpecularLighting in="SourceGraphic" result="specular" surfaceScale="1.5" specularConstant="100" specularExponent="10" lighting-color="rgba(100%,100%,100%,0)"><fePointLight x="250" y="-300" z="-400"></fePointLight></feSpecularLighting><feGaussianBlur in="specular" stdDeviation="1" result="specular2"></feGaussianBlur><feComposite operator="in" in="specular2" in2="SourceAlpha" result="specular3"></feComposite><feMerge result="merge"><feMergeNode in="border"></feMergeNode><feMergeNode in="inner-shadow"></feMergeNode><feMergeNode in="specular3"></feMergeNode></feMerge><feComponentTransfer in="merge" result="final"><feFuncA type="linear" slope="0.9" intercept="0"></feFuncA></feComponentTransfer><feMerge><feMergeNode in="shadow"></feMergeNode><feMergeNode in="final"></feMergeNode></feMerge></filter></defs><g filter="url(#editing-crystal)"><g transform="translate(12.542186856269836, 106.96500015258789)"><path d="M58.94-41.66L56.32-35.39L47.42-2.30L45.25 1.60L43.14 1.86L41.15-4.03L34.94-21.63L31.42-31.81L21.89-2.30L19.26 1.60L17.15 1.86L15.81-4.03L10.05-21.82L6.08-35.58L3.52-41.73L-1.41-42.88L-1.09-45.44L7.68-44.80L16.19-45.44L16.06-42.88L11.58-41.86L12.86-36.35L17.79-16.58L20.29-6.53L20.42-6.53L23.62-17.41L29.70-36.67L27.58-41.60L22.53-42.88L22.85-45.44L31.36-44.80L39.87-45.44L39.74-42.88L35.33-41.86L36.54-36.35L43.14-16.58L45.57-6.72L45.70-6.72L48-17.41L53.38-36.67L54.27-41.79L49.22-42.88L49.54-45.44L56.90-44.80L63.68-45.44L63.55-42.88L58.94-41.66ZM67.01-8.77L68.74-3.58L73.54-2.37L80-6.08L79.74-14.72L74.18-14.72L69.25-12.74L67.01-8.77ZM85.18-25.34L85.25-11.65L85.70-2.62L90.11-1.98L89.66 0.13L80.77 0.90L79.94-2.88L79.62-2.88L73.28 0.90L66.62 0.90L62.14-2.37L60.80-8.64L63.62-13.63L71.30-16.96L79.74-17.28L79.49-25.28L78.27-29.25L73.09-30.72L66.88-29.25L66.69-22.46L64.19-21.95L62.53-30.72L69.89-32.90L78.14-33.28L83.14-30.85L85.18-25.34ZM102.66-16.83L102.85 0L101.38 6.66L96.45 11.78L90.50 15.55L89.28 12.99L93.12 10.05L95.81 6.02L96.58 0L96.64-9.92L96.64-22.21L96.06-28.86L91.65-28.67L91.33-30.91L100.16-32.64L103.36-31.94L102.91-23.23L102.66-16.83ZM94.14-42.82L95.68-45.31L98.62-46.72L101.70-45.70L103.10-42.24L101.31-39.42L98.30-38.21L95.49-39.94L94.14-42.82ZM115.46-8.77L117.18-3.58L121.98-2.37L128.45-6.08L128.19-14.72L122.62-14.72L117.70-12.74L115.46-8.77ZM133.63-25.34L133.70-11.65L134.14-2.62L138.56-1.98L138.11 0.13L129.22 0.90L128.38-2.88L128.06-2.88L121.73 0.90L115.07 0.90L110.59-2.37L109.25-8.64L112.06-13.63L119.74-16.96L128.19-17.28L127.94-25.28L126.72-29.25L121.54-30.72L115.33-29.25L115.14-22.46L112.64-21.95L110.98-30.72L118.34-32.90L126.59-33.28L131.58-30.85L133.63-25.34ZM151.62-47.68L151.30-38.98L151.10-28.48L158.21-32.83L164.74-33.28L170.62-29.25L171.58-24.13L171.46-10.62L171.97-3.14L176.51-1.92L176.19 0.32L168.64 0L160.83 0.32L160.96-1.92L165.18-3.20L165.63-9.92L165.38-23.87L163.65-28.10L158.21-29.06L151.04-25.41L150.91-16.83L151.04-10.62L151.23-3.20L155.90-1.92L155.58 0.32L148.03 0L140.22 0.32L140.35-1.92L144.58-3.20L145.15-9.92L144.90-37.95L144.45-44.61L139.90-44.42L139.58-46.66L148.42-48.38L151.62-47.68ZM185.47-8.77L187.20-3.58L192-2.37L198.46-6.08L198.21-14.72L192.64-14.72L187.71-12.74L185.47-8.77ZM203.65-25.34L203.71-11.65L204.16-2.62L208.58-1.98L208.13 0.13L199.23 0.90L198.40-2.88L198.08-2.88L191.74 0.90L185.09 0.90L180.61-2.37L179.26-8.64L182.08-13.63L189.76-16.96L198.21-17.28L197.95-25.28L196.74-29.25L191.55-30.72L185.34-29.25L185.15-22.46L182.66-21.95L180.99-30.72L188.35-32.90L196.61-33.28L201.60-30.85L203.65-25.34ZM229.57-1.54L225.98 0.64L221.63 1.28L217.09-0.26L215.04-5.38L215.36-17.28L215.04-28.03L210.62-28.67L210.24-30.91L215.30-32.26L217.60-38.72L220.86-38.72L220.67-31.55L228.42-31.30L228.03-28.48L221.31-28.03L221.06-25.09L221.31-5.70L222.59-1.86L228.61-3.46L229.57-1.54ZM290.75-2.18L298.88-4.03L301.38-7.49L301.25-13.18L298.37-16.26L282.11-25.28L279.17-32.19L279.74-38.21L283.39-43.14L292.29-46.08L302.08-45.31L305.09-45.57L304.58-42.30L304.64-33.92L302.27-33.41L300.61-41.86L293.06-42.88L286.59-40.45L285.12-36.22L286.53-30.78L302.66-21.95L307.39-17.02L307.65-6.91L302.72-0.77L293.31 1.28L281.47-0.13L278.46-0.58L278.98-3.07L279.55-11.46L281.92-11.97L282.94-3.52L290.75-2.18ZM318.27-8.77L320-3.58L324.80-2.37L331.26-6.08L331.01-14.72L325.44-14.72L320.51-12.74L318.27-8.77ZM336.45-25.34L336.51-11.65L336.96-2.62L341.38-1.98L340.93 0.13L332.03 0.90L331.20-2.88L330.88-2.88L324.54 0.90L317.89 0.90L313.41-2.37L312.06-8.64L314.88-13.63L322.56-16.96L331.01-17.28L330.75-25.28L329.54-29.25L324.35-30.72L318.14-29.25L317.95-22.46L315.46-21.95L313.79-30.72L321.15-32.90L329.41-33.28L334.40-30.85L336.45-25.34ZM355.26-31.94L355.01-26.75L355.26-26.75L359.23-31.30L363.58-33.22L368.38-32L367.30-22.46L365.06-22.91L363.46-29.50L359.30-28.16L354.75-22.85L354.43-16.83L354.62-10.62L354.88-3.20L361.28-1.92L360.96 0.32L351.68 0L343.87 0.32L344.00-1.92L348.22-3.20L348.54-9.92L348.42-22.21L348.10-28.86L343.55-28.67L343.23-30.91L352.06-32.64L355.26-31.94ZM386.30 1.92L376.96-23.30L374.08-28.93L369.79-30.08L370.11-32.32L377.92-32L385.73-32.32L385.60-30.08L381.25-28.80L382.27-25.09L385.73-14.40L388.29-5.06L388.48-5.06L390.21-11.58L395.07-25.34L393.28-28.93L388.99-30.08L389.31-32.32L397.12-32L404.93-32.32L404.80-30.08L400.45-28.80L401.47-25.09L404.54-14.40L407.10-5.06L407.30-5.06L409.02-11.58L413.50-24.90L414.53-28.99L409.54-30.08L409.86-32.32L416.13-32L422.91-32.32L422.78-30.08L418.82-28.80L416.06-22.91L409.22-1.86L407.23 1.47L405.12 1.92L396.93-20.99L390.40-1.86L388.42 1.47L386.30 1.92ZM430.46-8.77L432.19-3.58L436.99-2.37L443.46-6.08L443.20-14.72L437.63-14.72L432.70-12.74L430.46-8.77ZM448.64-25.34L448.70-11.65L449.15-2.62L453.57-1.98L453.12 0.13L444.22 0.90L443.39-2.88L443.07-2.88L436.74 0.90L430.08 0.90L425.60-2.37L424.26-8.64L427.07-13.63L434.75-16.96L443.20-17.28L442.94-25.28L441.73-29.25L436.54-30.72L430.34-29.25L430.14-22.46L427.65-21.95L425.98-30.72L433.34-32.90L441.60-33.28L446.59-30.85L448.64-25.34ZM474.56-1.54L470.98 0.64L466.62 1.28L462.08-0.26L460.03-5.38L460.35-17.28L460.03-28.03L455.62-28.67L455.23-30.91L460.29-32.26L462.59-38.72L465.86-38.72L465.66-31.55L473.41-31.30L473.02-28.48L466.30-28.03L466.05-25.09L466.30-5.70L467.58-1.86L473.60-3.46L474.56-1.54Z" fill="#88dceb" stroke="rgba(53.333333333333336%,87.84313725490198%,92.15686274509804%,0)" stroke-width="1.5"></path></g></g><style>text {
  font-size: 64px;
  font-family: Arial Black;
  dominant-baseline: central;
  text-anchor: middle;
}</style></svg>